<svg xmlns="http://www.w3.org/2000/svg" width="48" height="46" viewBox="0 0 48 46"><g><g><path fill="#666" d="M1.618 28.463c-2.517-6.392-1.76-12.448 2.157-18.041 3.37-4.813 8.107-7.737 13.768-9.083C25.311-.51 32.614.653 39.214 5.268c4.026 2.815 6.855 6.578 8.08 11.391 1.441 5.661.406 10.92-2.97 15.663-3.418 4.801-8.163 7.682-13.825 9.084-4.903 1.214-9.783 1.045-14.613-.471a1.521 1.521 0 0 0-.879.011c-4.173 1.396-8.339 2.811-12.505 4.226-.447.152-.886.248-1.35.075-1.004-.373-1.394-1.529-.796-2.457.728-1.129 1.483-2.239 2.225-3.357l3.151-4.745c-1.77-1.843-3.192-3.881-4.114-6.225zM27.201 11.24c.074-1.867-1.375-3.352-3.188-3.314-1.817.038-3.179 1.58-3.063 3.438.09 1.451.148 2.906.222 4.358.131 2.599.243 5.199.403 7.795.096 1.561 1.584 2.598 3.107 2.226 1.178-.287 1.86-1.152 1.927-2.474.104-2.04.197-4.08.275-5.708.121-2.382.24-4.351.317-6.321zm-3.144 16.905a3.308 3.308 0 0 0-3.306 3.306 3.326 3.326 0 0 0 3.326 3.337c1.865.001 3.317-1.458 3.316-3.33a3.296 3.296 0 0 0-3.336-3.313z"/></g></g></svg>