<svg xmlns="http://www.w3.org/2000/svg" width="21" height="24" viewBox="0 0 21 24"><g><g><path fill="#46B9F6" d="M19.301 5.56c.561 0 1.016.455 1.016 1.016v15.87c0 .563-.455 1.018-1.016 1.018H1.858a1.017 1.017 0 0 1-1.017-1.017V6.585c0-.562.455-1.017 1.017-1.017h2.653c.561 0 1.016-.455 1.016-1.015V1.967c0-.562.455-1.017 1.016-1.017h8.067c.561 0 1.016.455 1.016 1.017v2.576c0 .562.455 1.017 1.017 1.017zm-6.686-.016c.561 0 1.016-.455 1.016-1.016v-.583c0-.561-.455-1.016-1.016-1.016H8.54c-.56 0-1.016.455-1.016 1.016v.583c0 .56.455 1.016 1.016 1.016z"/></g></g></svg>